<svg width="116" height="60" viewBox="0 0 116 60" fill="none" xmlns="http://www.w3.org/2000/svg">
<rect x="97" y="29" width="18" height="21" fill="#FA7921"/>
<path d="M21.625 23.5V23.5C20.9811 28.3648 16.8331 32 11.9259 32H4.36815C4.16483 32 4 32.1648 4 32.3682L4 47C4 48.1046 4.89543 49 6 49H11.875H14.6393C18.4332 49 22.1144 47.7095 25.0778 45.3406V45.3406C31.2502 40.4066 31.3749 31.0623 25.3364 25.9654L24.6827 25.4136C21.4973 22.7249 17.4634 21.25 13.295 21.25H11.875H6C4.89543 21.25 4 20.3546 4 19.25V6C4 4.89543 4.89543 4 6 4H11.875H15.9095C18.3774 4 20.7534 4.93653 22.5576 6.62045V6.62045C24.3677 8.30981 25.4667 10.6249 25.6314 13.0953L25.685 13.9002C25.7282 14.5487 25.711 15.1997 25.6336 15.845L25.5819 16.2758C25.4454 17.4132 25.0772 18.5105 24.5 19.5V19.5" stroke="#FA7921" stroke-width="7"/>
<path d="M35.584 48V31.476H38.27V34.434C39.154 32.4393 40.9673 31.34 43.71 31.136L44.696 31.034L44.9 33.414L43.166 33.618C41.602 33.754 40.412 34.2527 39.596 35.114C38.78 35.9527 38.372 37.1087 38.372 38.582V48H35.584ZM55.2155 48.306C52.6089 48.306 50.5462 47.5467 49.0275 46.028C47.5089 44.4867 46.7495 42.4013 46.7495 39.772C46.7495 38.072 47.0895 36.576 47.7695 35.284C48.4495 33.9693 49.3789 32.9607 50.5575 32.258C51.7589 31.5327 53.1415 31.17 54.7055 31.17C56.9495 31.17 58.7062 31.8953 59.9755 33.346C61.2449 34.774 61.8795 36.746 61.8795 39.262V40.316H49.4355C49.5262 42.1973 50.0702 43.6367 51.0675 44.634C52.0649 45.6087 53.4475 46.096 55.2155 46.096C56.2129 46.096 57.1649 45.9487 58.0715 45.654C58.9782 45.3367 59.8395 44.8267 60.6555 44.124L61.6075 46.062C60.8595 46.7647 59.9075 47.32 58.7515 47.728C57.5955 48.1133 56.4169 48.306 55.2155 48.306ZM54.7735 33.21C53.2095 33.21 51.9742 33.6973 51.0675 34.672C50.1609 35.6467 49.6282 36.9273 49.4695 38.514H59.4995C59.4315 36.8367 58.9895 35.5333 58.1735 34.604C57.3802 33.6747 56.2469 33.21 54.7735 33.21ZM73.3113 48.306C70.7046 48.306 68.6419 47.5467 67.1233 46.028C65.6046 44.4867 64.8453 42.4013 64.8453 39.772C64.8453 38.072 65.1853 36.576 65.8653 35.284C66.5453 33.9693 67.4746 32.9607 68.6533 32.258C69.8546 31.5327 71.2373 31.17 72.8013 31.17C75.0453 31.17 76.8019 31.8953 78.0713 33.346C79.3406 34.774 79.9753 36.746 79.9753 39.262V40.316H67.5312C67.6219 42.1973 68.1659 43.6367 69.1633 44.634C70.1606 45.6087 71.5433 46.096 73.3113 46.096C74.3086 46.096 75.2606 45.9487 76.1673 45.654C77.0739 45.3367 77.9353 44.8267 78.7513 44.124L79.7033 46.062C78.9553 46.7647 78.0033 47.32 76.8473 47.728C75.6913 48.1133 74.5126 48.306 73.3113 48.306ZM72.8693 33.21C71.3053 33.21 70.0699 33.6973 69.1633 34.672C68.2566 35.6467 67.7239 36.9273 67.5653 38.514H77.5953C77.5273 36.8367 77.0853 35.5333 76.2693 34.604C75.4759 33.6747 74.3426 33.21 72.8693 33.21ZM83.1805 48V46.164L92.6325 33.618H83.1805V31.476H95.6925V33.312L86.2405 45.858H96.0665V48H83.1805Z" fill="#3D348B"/>
<path d="M107.079 48.306C104.472 48.306 102.409 47.5467 100.891 46.028C99.3722 44.4867 98.6128 42.4013 98.6128 39.772C98.6128 38.072 98.9528 36.576 99.6328 35.284C100.313 33.9693 101.242 32.9607 102.421 32.258C103.622 31.5327 105.005 31.17 106.569 31.17C108.813 31.17 110.569 31.8953 111.839 33.346C113.108 34.774 113.743 36.746 113.743 39.262V40.316H101.299C101.389 42.1973 101.933 43.6367 102.931 44.634C103.928 45.6087 105.311 46.096 107.079 46.096C108.076 46.096 109.028 45.9487 109.935 45.654C110.841 45.3367 111.703 44.8267 112.519 44.124L113.471 46.062C112.723 46.7647 111.771 47.32 110.615 47.728C109.459 48.1133 108.28 48.306 107.079 48.306ZM106.637 33.21C105.073 33.21 103.837 33.6973 102.931 34.672C102.024 35.6467 101.491 36.9273 101.333 38.514H111.363C111.295 36.8367 110.853 35.5333 110.037 34.604C109.243 33.6747 108.11 33.21 106.637 33.21Z" fill="#E8F1F2"/>
</svg>
