<svg width="149" height="90" viewBox="0 0 149 90" fill="none" xmlns="http://www.w3.org/2000/svg">
<path fill-rule="evenodd" clip-rule="evenodd" d="M95.245 43.0606L100.245 43.0606L102.245 43.0606L107.245 43.0606L107.245 48.0606L107.245 55.0606L102.245 55.0606L102.245 48.0606L95.245 48.0606L90.245 48.0606L90.245 43.0606L90.245 37.0606C90.245 33.7469 87.5588 31.0606 84.245 31.0606C80.9313 31.0606 78.245 33.7469 78.245 37.0606L78.245 43.0606L78.245 48.0606L73.245 48.0606L66.245 48.0606L66.245 84.0606L102.245 84.0606L102.245 77.0606L107.245 77.0606L107.245 84.0606L107.245 89.0606L102.245 89.0606L66.245 89.0606L61.245 89.0606L61.245 84.0606L61.245 48.0606L61.245 43.0606L66.245 43.0606L68.245 43.0606L73.245 43.0606L73.245 38.0606L73.245 37.0606C73.245 30.9855 78.1699 26.0606 84.245 26.0606C90.3202 26.0606 95.245 30.9855 95.245 37.0606L95.245 38.0606L95.245 43.0606Z" fill="#DEE2E6"/>
<path fill-rule="evenodd" clip-rule="evenodd" d="M102.245 55.0606L102.245 50.0606L102.245 48.0606L102.245 43.0606L107.245 43.0606L143.245 43.0606L148.245 43.0606L148.245 48.0606L148.245 84.0606L148.245 89.0606L143.245 89.0606L107.245 89.0606L102.245 89.0606L102.245 84.0606L102.245 82.0606L102.245 77.0606L97.245 77.0606L96.245 77.0606C90.1699 77.0606 85.245 72.1357 85.245 66.0606C85.245 59.9855 90.1699 55.0606 96.245 55.0606L97.245 55.0606L102.245 55.0606ZM107.245 55.0606L107.245 48.0606L114.245 48.0606L114.245 43.0607L136.245 43.0607L136.245 48.0606L143.245 48.0606L143.245 84.0606L107.245 84.0606L107.245 77.0606L107.245 72.0606L102.245 72.0606L96.245 72.0606C92.9313 72.0606 90.245 69.3743 90.245 66.0606C90.245 62.7469 92.9313 60.0606 96.245 60.0606L102.245 60.0606L107.245 60.0606L107.245 55.0606Z" fill="#DEE2E6"/>
<mask id="path-3-inside-1_1_112" fill="white">
<path fill-rule="evenodd" clip-rule="evenodd" d="M148.245 2.06073L148.245 48.0607L136.245 48.0607L136.245 54.0607C136.245 60.1359 131.32 65.0607 125.245 65.0607C119.17 65.0607 114.245 60.1359 114.245 54.0607L114.245 48.0607L102.245 48.0607L102.245 31.0607L113.245 31.0607C116.559 31.0607 119.245 28.3744 119.245 25.0607C119.245 21.747 116.559 19.0607 113.245 19.0607L102.245 19.0607L102.245 2.06073L148.245 2.06073Z"/>
</mask>
<path d="M148.245 48.0607L148.245 53.0607L153.245 53.0607L153.245 48.0607L148.245 48.0607ZM148.245 2.06073L153.245 2.06073L153.245 -2.93927L148.245 -2.93927L148.245 2.06073ZM136.245 48.0607L136.245 43.0607L131.245 43.0607L131.245 48.0607L136.245 48.0607ZM114.245 48.0607L119.245 48.0607L119.245 43.0607L114.245 43.0607L114.245 48.0607ZM102.245 48.0607L97.2451 48.0607L97.2451 53.0607L102.245 53.0607L102.245 48.0607ZM102.245 31.0607L102.245 26.0607L97.2451 26.0607L97.2451 31.0607L102.245 31.0607ZM113.245 31.0607L113.245 36.0607L113.245 31.0607ZM102.245 19.0607L97.2451 19.0607L97.2451 24.0607L102.245 24.0607L102.245 19.0607ZM102.245 2.06073L102.245 -2.93927L97.2451 -2.93927L97.2451 2.06073L102.245 2.06073ZM153.245 48.0607L153.245 2.06073L143.245 2.06073L143.245 48.0607L153.245 48.0607ZM136.245 53.0607L148.245 53.0607L148.245 43.0607L136.245 43.0607L136.245 53.0607ZM141.245 54.0607L141.245 48.0607L131.245 48.0607L131.245 54.0607L141.245 54.0607ZM125.245 70.0607C134.082 70.0607 141.245 62.8973 141.245 54.0607L131.245 54.0607C131.245 57.3744 128.559 60.0607 125.245 60.0607L125.245 70.0607ZM109.245 54.0607C109.245 62.8973 116.409 70.0607 125.245 70.0607L125.245 60.0607C121.931 60.0607 119.245 57.3744 119.245 54.0607L109.245 54.0607ZM109.245 48.0607L109.245 54.0607L119.245 54.0607L119.245 48.0607L109.245 48.0607ZM102.245 53.0607L114.245 53.0607L114.245 43.0607L102.245 43.0607L102.245 53.0607ZM97.2451 31.0607L97.2451 48.0607L107.245 48.0607L107.245 31.0607L97.2451 31.0607ZM113.245 26.0607L102.245 26.0607L102.245 36.0607L113.245 36.0607L113.245 26.0607ZM114.245 25.0607C114.245 25.613 113.797 26.0607 113.245 26.0607L113.245 36.0607C119.32 36.0607 124.245 31.1359 124.245 25.0607L114.245 25.0607ZM113.245 24.0607C113.797 24.0607 114.245 24.5084 114.245 25.0607L124.245 25.0607C124.245 18.9856 119.32 14.0607 113.245 14.0607L113.245 24.0607ZM102.245 24.0607L113.245 24.0607L113.245 14.0607L102.245 14.0607L102.245 24.0607ZM97.2451 2.06073L97.2451 19.0607L107.245 19.0607L107.245 2.06073L97.2451 2.06073ZM148.245 -2.93927L102.245 -2.93927L102.245 7.06073L148.245 7.06073L148.245 -2.93927Z" fill="#DEE2E6" mask="url(#path-3-inside-1_1_112)"/>
<mask id="path-5-inside-2_1_112" fill="white">
<path fill-rule="evenodd" clip-rule="evenodd" d="M0 16.3056L44.4326 4.39993L47.5384 15.991L53.334 14.4381C59.2021 12.8658 65.2338 16.3482 66.8062 22.2163C68.3785 28.0844 64.8961 34.1161 59.028 35.6885L53.2324 37.2414L56.3383 48.8325L39.9175 53.2324L37.0705 42.6073C36.2129 39.4065 32.9228 37.507 29.722 38.3646C26.5213 39.2223 24.6218 42.5123 25.4794 45.7131L28.3264 56.3383L11.9057 60.7382L0 16.3056Z"/>
</mask>
<path d="M44.4326 4.39993L49.2622 3.10583L47.9681 -1.7238L43.1385 -0.429704L44.4326 4.39993ZM0 16.3056L-1.2941 11.476L-6.12372 12.7701L-4.82963 17.5997L0 16.3056ZM47.5384 15.991L42.7088 17.2851L44.0029 22.1148L48.8325 20.8207L47.5384 15.991ZM53.2324 37.2414L51.9383 32.4118L47.1087 33.7059L48.4028 38.5355L53.2324 37.2414ZM56.3383 48.8325L57.6324 53.6621L62.462 52.368L61.1679 47.5384L56.3383 48.8325ZM39.9175 53.2324L35.0879 54.5265L36.382 59.3562L41.2116 58.0621L39.9175 53.2324ZM37.0705 42.6073L41.9001 41.3132L37.0705 42.6073ZM25.4794 45.7131L30.309 44.419L25.4794 45.7131ZM28.3264 56.3383L29.6205 61.1679L34.4501 59.8738L33.156 55.0442L28.3264 56.3383ZM11.9057 60.7382L7.07605 62.0323L8.37014 66.8619L13.1998 65.5678L11.9057 60.7382ZM43.1385 -0.429704L-1.2941 11.476L1.2941 21.1352L45.7267 9.22956L43.1385 -0.429704ZM52.368 14.6969L49.2622 3.10583L39.603 5.69402L42.7088 17.2851L52.368 14.6969ZM52.0399 9.60849L46.2443 11.1614L48.8325 20.8207L54.6281 19.2678L52.0399 9.60849ZM71.6358 20.9222C69.3487 12.3867 60.5753 7.32142 52.0399 9.60849L54.6281 19.2678C57.8289 18.4101 61.1189 20.3096 61.9765 23.5104L71.6358 20.9222ZM60.3221 40.5181C68.8575 38.2311 73.9229 29.4577 71.6358 20.9222L61.9765 23.5104C62.8342 26.7112 60.9347 30.0012 57.7339 30.8589L60.3221 40.5181ZM54.5265 42.071L60.3221 40.5181L57.7339 30.8589L51.9383 32.4118L54.5265 42.071ZM61.1679 47.5384L58.0621 35.9473L48.4028 38.5355L51.5086 50.1266L61.1679 47.5384ZM41.2116 58.0621L57.6324 53.6621L55.0442 44.0029L38.6234 48.4028L41.2116 58.0621ZM32.2409 43.9014L35.0879 54.5265L44.7472 51.9383L41.9001 41.3132L32.2409 43.9014ZM31.0161 43.1942C31.5496 43.0513 32.0979 43.3679 32.2409 43.9014L41.9001 41.3132C40.3278 35.445 34.2961 31.9626 28.428 33.535L31.0161 43.1942ZM30.309 44.419C30.1661 43.8855 30.4827 43.3372 31.0161 43.1942L28.428 33.535C22.5598 35.1073 19.0774 41.1391 20.6498 47.0072L30.309 44.419ZM33.156 55.0442L30.309 44.419L20.6498 47.0072L23.4968 57.6324L33.156 55.0442ZM13.1998 65.5678L29.6205 61.1679L27.0323 51.5086L10.6116 55.9086L13.1998 65.5678ZM-4.82963 17.5997L7.07605 62.0323L16.7353 59.4441L4.82963 15.0115L-4.82963 17.5997Z" fill="#FA7921" mask="url(#path-5-inside-2_1_112)"/>
</svg>
