<svg width="113" height="95" viewBox="0 0 113 95" fill="none" xmlns="http://www.w3.org/2000/svg">
<path fill-rule="evenodd" clip-rule="evenodd" d="M60 0H57.5V4V89V95H60H110H112.5V89V4V0H110H60ZM62.5 83V8H107.5V83H62.5ZM84 85C81.7909 85 80 86.7909 80 89C80 91.2091 81.7909 93 84 93C86.2091 93 88 91.2091 88 89C88 86.7909 86.2091 85 84 85ZM68 4C68 3.17157 68.6716 2.5 69.5 2.5C70.3284 2.5 71 3.17157 71 4C71 4.82843 70.3284 5.5 69.5 5.5C68.6716 5.5 68 4.82843 68 4ZM78 2C76.8954 2 76 2.89543 76 4C76 5.10457 76.8954 6 78 6H92C93.1046 6 94 5.10457 94 4C94 2.89543 93.1046 2 92 2H78Z" fill="#DEE2E6"/>
<circle cx="49.7231" cy="47.1693" r="7" fill="#FA7921"/>
<path d="M42.625 32C27.1251 39.9876 27.1249 54.0124 42.625 62" stroke="#DEE2E6" stroke-width="5"/>
<path d="M28.625 24C13.1251 35.9814 13.1249 57.0186 28.625 69" stroke="#DEE2E6" stroke-width="5"/>
<path d="M14.625 17C-0.874939 32.9752 -0.875061 61.0248 14.625 77" stroke="#DEE2E6" stroke-width="5"/>
<path d="M55.3749 32.1893C70.8749 40.1769 70.875 54.2018 55.3749 62.1893" stroke="#DEE2E6" stroke-width="5"/>
<path d="M69.375 24.1893C84.8749 36.1707 84.875 57.208 69.375 69.1893" stroke="#DEE2E6" stroke-width="5"/>
<path d="M83.375 17.1893C98.8749 33.1645 98.8751 61.2142 83.375 77.1893" stroke="#DEE2E6" stroke-width="5"/>
</svg>
