<svg width="18" height="18" viewBox="0 0 18 18" fill="none" xmlns="http://www.w3.org/2000/svg">
<path d="M17.5281 14.4665C17.4934 14.3652 17.4125 14.2089 17.3547 14.1192C16.9906 13.5694 15.0343 12.0384 14.0576 11.5377C13.4999 11.2512 13.0867 11.1557 12.7803 11.2454C12.4509 11.3381 12.2775 11.4914 11.7256 12.1773C11.5031 12.4523 11.2748 12.7098 11.2141 12.7503C11.0638 12.8545 10.7691 12.9385 10.5611 12.9385C10.0785 12.9355 9.20289 12.623 8.52958 12.212C8.00655 11.8937 7.33618 11.3236 6.82178 10.7592C6.21492 10.0965 5.80174 9.51189 5.47517 8.85203C5.0533 8.00408 4.94638 7.48602 5.12263 7.10688C5.16598 7.01139 5.22379 6.91012 5.24976 6.87824C5.27578 6.84934 5.54743 6.62647 5.84793 6.38336C6.43745 5.91455 6.5328 5.80747 6.6426 5.48622C6.78131 5.07813 6.74376 4.66139 6.52992 4.24177C6.36519 3.92341 5.93464 3.22883 5.62256 2.78026C5.20933 2.18989 4.18059 0.928077 3.9754 0.757278C3.60552 0.456323 3.13166 0.404198 2.60857 0.606825C2.05668 0.820991 1.02214 1.65447 0.580007 2.23619C0.181228 2.7629 0.028123 3.13622 0.00498168 3.62822C-0.015232 4.03337 0.0194316 4.20123 0.233274 4.71929C1.90641 8.78256 4.40307 12.0268 7.83318 14.6026C9.62478 15.9483 11.4829 16.9728 13.4103 17.6732C14.5344 18.0812 15.0227 18.1015 15.5978 17.7658C15.8405 17.6211 16.4416 17.0046 16.7768 16.5561C17.3316 15.8094 17.5368 15.465 17.5946 15.1901C17.635 15.0019 17.6032 14.6749 17.5281 14.4665V14.4665Z" fill="#0867D6"/>
<path d="M17.5281 14.4665C17.4934 14.3652 17.4125 14.2089 17.3547 14.1192C16.9906 13.5694 15.0343 12.0384 14.0576 11.5377C13.4999 11.2512 13.0867 11.1557 12.7803 11.2454C12.4509 11.3381 12.2775 11.4914 11.7256 12.1773C11.5031 12.4523 11.2748 12.7098 11.2141 12.7503C11.0638 12.8545 10.7691 12.9385 10.5611 12.9385C10.0785 12.9355 9.20289 12.623 8.52958 12.212C8.00655 11.8937 7.33618 11.3236 6.82178 10.7592C6.21492 10.0965 5.80174 9.51189 5.47517 8.85203C5.0533 8.00408 4.94638 7.48602 5.12263 7.10688C5.16598 7.01139 5.22379 6.91012 5.24976 6.87824C5.27578 6.84934 5.54743 6.62647 5.84793 6.38336C6.43745 5.91455 6.5328 5.80747 6.6426 5.48622C6.78131 5.07813 6.74376 4.66139 6.52992 4.24177C6.36519 3.92341 5.93464 3.22883 5.62256 2.78026C5.20933 2.18989 4.18059 0.928077 3.9754 0.757278C3.60552 0.456323 3.13166 0.404198 2.60857 0.606825C2.05668 0.820991 1.02214 1.65447 0.580007 2.23619C0.181228 2.7629 0.028123 3.13622 0.00498168 3.62822C-0.015232 4.03337 0.0194316 4.20123 0.233274 4.71929C1.90641 8.78256 4.40307 12.0268 7.83318 14.6026C9.62478 15.9483 11.4829 16.9728 13.4103 17.6732C14.5344 18.0812 15.0227 18.1015 15.5978 17.7658C15.8405 17.6211 16.4416 17.0046 16.7768 16.5561C17.3316 15.8094 17.5368 15.465 17.5946 15.1901C17.635 15.0019 17.6032 14.6749 17.5281 14.4665V14.4665Z" fill="#EEEE36"/>
<path d="M17.5281 14.4665C17.4934 14.3652 17.4125 14.2089 17.3547 14.1192C16.9906 13.5694 15.0343 12.0384 14.0576 11.5377C13.4999 11.2512 13.0867 11.1557 12.7803 11.2454C12.4509 11.3381 12.2775 11.4914 11.7256 12.1773C11.5031 12.4523 11.2748 12.7098 11.2141 12.7503C11.0638 12.8545 10.7691 12.9385 10.5611 12.9385C10.0785 12.9355 9.20289 12.623 8.52958 12.212C8.00655 11.8937 7.33618 11.3236 6.82178 10.7592C6.21492 10.0965 5.80174 9.51189 5.47517 8.85203C5.0533 8.00408 4.94638 7.48602 5.12263 7.10688C5.16598 7.01139 5.22379 6.91012 5.24976 6.87824C5.27578 6.84934 5.54743 6.62647 5.84793 6.38336C6.43745 5.91455 6.5328 5.80747 6.6426 5.48622C6.78131 5.07813 6.74376 4.66139 6.52992 4.24177C6.36519 3.92341 5.93464 3.22883 5.62256 2.78026C5.20933 2.18989 4.18059 0.928077 3.9754 0.757278C3.60552 0.456323 3.13166 0.404198 2.60857 0.606825C2.05668 0.820991 1.02214 1.65447 0.580007 2.23619C0.181228 2.7629 0.028123 3.13622 0.00498168 3.62822C-0.015232 4.03337 0.0194316 4.20123 0.233274 4.71929C1.90641 8.78256 4.40307 12.0268 7.83318 14.6026C9.62478 15.9483 11.4829 16.9728 13.4103 17.6732C14.5344 18.0812 15.0227 18.1015 15.5978 17.7658C15.8405 17.6211 16.4416 17.0046 16.7768 16.5561C17.3316 15.8094 17.5368 15.465 17.5946 15.1901C17.635 15.0019 17.6032 14.6749 17.5281 14.4665V14.4665Z" fill="#7F4DA0"/>
</svg>
